# xmcd
#
# Track frame offsets:
#	150
#	4920
#	24605
#	38122
#	53563
#
# Disc length: 1115 seconds
#
# Revision: 1
# Processed by: cddbd v1.5.2PL0 Copyright (c) Steve Scherf et al.
# Submitted via: audiograbber 1.83.01
#
DISCID=33045905
DTITLE=Dargolf Metzgore - Guts, blood and booze
DYEAR=2007
DGENRE=Death Metal
TTITLE0=Intro
TTITLE1=Fleshfest
TTITLE2=Gutfucked
TTITLE3=Horse Cock In Tiny Mouth
TTITLE4=Day 2
EXTD=
EXTT0=
EXTT1=
EXTT2=
EXTT3=
EXTT4=
PLAYORDER=
